<svg xmlns="http://www.w3.org/2000/svg" viewBox="0 0 200 200">
<path d="M100 96 C108 78 104 52 84 46 C62 40 44 56 46 78 C48 96 62 102 74 104 C62 110 50 122 52 140 C56 162 78 172 100 170 C122 172 144 162 148 140 C150 122 138 110 126 104 C138 102 152 96 154 78 C156 56 138 40 116 46 C96 52 92 78 100 96 Z" fill="var(--alien-primary)" stroke="var(--alien-secondary)" stroke-width="5" stroke-linejoin="round"/>
<ellipse cx="100" cy="128" rx="30" ry="20" fill="var(--alien-accent)" opacity="0.25"/>
</svg>
