<svg xmlns="http://www.w3.org/2000/svg" viewBox="0 0 200 200">
<path d="M100 38 C112 38 118 50 126 56 C136 62 152 60 158 72 C164 84 154 96 154 108 C154 122 166 134 158 146 C150 158 134 154 124 160 C114 166 110 174 100 174 C90 174 86 166 76 160 C66 154 50 158 42 146 C34 134 46 122 46 108 C46 96 36 84 42 72 C48 60 64 62 74 56 C82 50 88 38 100 38 Z" fill="var(--alien-primary)" stroke="var(--alien-secondary)" stroke-width="5" stroke-linejoin="round"/>
<ellipse cx="100" cy="128" rx="30" ry="20" fill="var(--alien-accent)" opacity="0.25"/>
</svg>
